<svg width="390" height="390" viewBox="0 0 390 390" fill="none" xmlns="http://www.w3.org/2000/svg">
<g filter="url(#filter0_dn_2038_2)">
<path d="M5.07712 205.155L5 197.124L50.7653 196.712L50.8424 204.744L5.07712 205.155Z" fill="white" fill-opacity="0.1"/>
<path d="M30.8568 288.82C30.2975 289.018 29.7378 289.096 29.1778 289.054C28.6251 289.03 28.103 288.909 27.6116 288.688C27.1475 288.48 26.7276 288.179 26.352 287.786C25.9764 287.393 25.6897 286.936 25.492 286.414C25.3161 285.949 25.2265 285.444 25.2232 284.897C25.2271 284.369 25.3593 283.85 25.6196 283.341L44.905 245.237L14.6409 255.98L11.7839 248.439L51.4268 234.367C52.2258 234.083 53.0256 234.041 53.826 234.239C54.6537 234.45 55.3556 234.837 55.9316 235.4C56.5023 236.009 56.8506 236.719 56.9765 237.53C57.1224 238.334 57.0082 239.109 56.634 239.856L37.3786 277.95L67.6427 267.207L70.4997 274.748L30.8568 288.82Z" fill="white" fill-opacity="0.1"/>
<path d="M111.778 316.132L64.7342 329.986C64.0043 330.195 63.2593 330.192 62.499 329.978C61.7377 329.793 61.0809 329.415 60.5288 328.843C59.9912 328.286 59.6453 327.627 59.4912 326.864C59.3361 326.13 59.3837 325.411 59.6341 324.705L77.1012 280.229L83.4437 286.796L70.3443 319.962L105.457 309.588L111.778 316.132Z" fill="white" fill-opacity="0.1"/>
<path d="M146.848 358.746L122.978 348.287L126.426 340.913L150.297 351.373L146.848 358.746ZM142.537 376.728L115.265 364.778C114.218 364.319 113.158 363.64 112.084 362.74C111.01 361.84 110.129 360.753 109.44 359.479C108.779 358.195 108.393 356.749 108.281 355.14C108.198 353.521 108.599 351.764 109.485 349.869L121.831 323.471C122.068 322.964 122.389 322.528 122.793 322.163C123.198 321.798 123.644 321.518 124.131 321.325C124.638 321.14 125.168 321.056 125.721 321.072C126.274 321.088 126.822 321.215 127.364 321.453L161.412 336.372L157.99 343.689L127.693 330.414L117.045 353.181C116.597 354.138 116.517 354.984 116.803 355.72C117.09 356.456 117.737 357.045 118.745 357.487L145.959 369.411L142.537 376.728Z" fill="white" fill-opacity="0.1"/>
<path d="M221.306 379.066C221.289 379.643 221.156 380.175 220.908 380.663C220.681 381.151 220.371 381.575 219.977 381.935C219.606 382.276 219.162 382.542 218.645 382.734C218.129 382.926 217.583 383.014 217.009 382.998C216.499 382.984 215.98 382.878 215.454 382.678C214.949 382.479 214.5 382.168 214.108 381.745L184.688 350.289L183.784 381.478L175.489 381.252L176.673 340.399C176.697 339.575 176.953 338.84 177.44 338.194C177.949 337.528 178.58 337.041 179.334 336.731C180.13 336.444 180.94 336.394 181.765 336.581C182.59 336.748 183.292 337.138 183.87 337.751L213.291 369.176L214.195 337.987L222.49 338.213L221.306 379.066Z" fill="white" fill-opacity="0.1"/>
<path d="M276.943 325.77L259.801 331.938L272.857 365.932L265.079 368.73L252.023 334.736L234.852 340.915L231.96 333.386L274.052 318.241L276.943 325.77Z" fill="white" fill-opacity="0.1"/>
<path d="M335.556 298.284C337.431 300.28 338.801 302.428 339.667 304.728C340.533 307.028 340.909 309.341 340.794 311.669C340.68 313.996 340.079 316.264 338.991 318.474C337.905 320.655 336.346 322.638 334.315 324.426L326.002 331.74C323.971 333.527 321.775 334.848 319.413 335.701C317.038 336.539 314.647 336.903 312.243 336.792C309.838 336.681 307.487 336.106 305.188 335.067C302.905 334.014 300.826 332.49 298.951 330.493L293.069 324.23C291.208 322.249 289.845 320.109 288.979 317.809C288.115 315.481 287.747 313.16 287.876 310.848C287.99 308.521 288.591 306.252 289.679 304.042C290.767 301.833 292.326 299.834 294.357 298.047L302.67 290.733C304.701 288.946 306.896 287.64 309.256 286.816C311.632 285.977 314.022 285.614 316.427 285.725C318.817 285.82 321.161 286.402 323.458 287.47C325.741 288.523 327.813 290.04 329.673 292.021L335.556 298.284ZM323.533 297.424C322.431 296.25 321.24 295.365 319.959 294.766C318.679 294.139 317.37 293.801 316.032 293.754C314.695 293.678 313.359 293.893 312.024 294.4C310.69 294.878 309.432 295.637 308.252 296.676L299.939 303.99C298.742 305.043 297.827 306.197 297.193 307.45C296.56 308.675 296.212 309.942 296.148 311.251C296.069 312.545 296.284 313.845 296.792 315.151C297.301 316.429 298.107 317.654 299.209 318.827L305.092 325.091C306.194 326.264 307.384 327.164 308.664 327.792C309.945 328.39 311.262 328.721 312.614 328.783C313.952 328.83 315.289 328.615 316.622 328.137C317.958 327.63 319.224 326.85 320.42 325.797L328.686 318.524C329.882 317.471 330.797 316.332 331.43 315.108C332.064 313.854 332.42 312.58 332.499 311.286C332.563 309.977 332.34 308.684 331.831 307.407C331.323 306.1 330.518 304.86 329.416 303.687L323.533 297.424Z" fill="white" fill-opacity="0.1"/>
<path d="M353.884 234.476C355.587 235.279 357.004 236.2 358.138 237.239C359.271 238.279 360.177 239.394 360.856 240.584C361.524 241.748 361.994 242.954 362.263 244.204C362.533 245.454 362.655 246.692 362.63 247.917C362.595 249.115 362.426 250.273 362.123 251.39C361.83 252.489 361.459 253.483 361.012 254.371L382.062 245.644L376.438 256.806L355.402 265.506L352.787 270.698L345.328 267.178L353.553 250.851C353.934 249.908 354.157 248.994 354.224 248.109C354.282 247.196 354.178 246.345 353.913 245.556C353.657 244.748 353.231 244.02 352.634 243.371C352.018 242.714 351.223 242.155 350.247 241.695L345.543 239.475C345.122 239.276 344.779 239.183 344.512 239.194C344.236 239.179 344.008 239.231 343.829 239.353C343.639 239.447 343.488 239.582 343.376 239.758C343.273 239.916 343.184 240.068 343.11 240.216L331.107 264.04L364.786 279.936L361.149 287.155L323.77 269.513C323.253 269.269 322.812 268.946 322.447 268.545C322.081 268.143 321.805 267.704 321.619 267.226C321.443 266.731 321.371 266.216 321.404 265.681C321.436 265.147 321.583 264.62 321.844 264.102L335.651 236.696C336.462 235.086 337.454 233.87 338.625 233.048C339.778 232.217 340.985 231.676 342.248 231.424C343.502 231.145 344.729 231.105 345.93 231.306C347.14 231.487 348.204 231.795 349.122 232.228L353.884 234.476Z" fill="white" fill-opacity="0.1"/>
<path d="M355.963 180.605C357.852 180.736 359.522 181.089 360.973 181.664C362.425 182.219 363.696 182.916 364.786 183.756C365.855 184.593 366.754 185.554 367.485 186.637C368.217 187.699 368.808 188.793 369.258 189.919C369.687 191.042 369.977 192.177 370.127 193.323C370.278 194.449 370.318 195.505 370.245 196.491L370.006 199.726L385 200.764L384.404 208.837L369.41 207.799L369.173 211.004C369.1 211.99 368.905 213.04 368.588 214.153C368.273 215.246 367.82 216.33 367.228 217.404C366.617 218.456 365.871 219.457 364.991 220.408C364.11 221.359 363.078 222.186 361.896 222.888C360.694 223.569 359.332 224.094 357.812 224.464C356.271 224.812 354.568 224.921 352.7 224.792L337.419 223.734L338.011 215.723L353.292 216.78C354.374 216.855 355.362 216.758 356.257 216.49C357.13 216.22 357.896 215.808 358.556 215.255C359.215 214.702 359.746 214.016 360.148 213.198C360.53 212.357 360.759 211.413 360.837 210.365L361.904 195.914C361.833 195.145 361.732 194.353 361.6 193.539C361.447 192.723 361.15 191.969 360.711 191.278C360.271 190.587 359.632 189.996 358.794 189.504C357.956 189.013 356.815 188.717 355.372 188.617L340.091 187.56L340.683 179.548L355.963 180.605Z" fill="white" fill-opacity="0.1"/>
<path d="M256.902 270.409L253.654 273.479L250.704 275.91L253.575 272.613L256.743 268.328L249.061 273.685L241.695 278.279L235.3 281.679L229.399 284.461C225.697 286.027 222.153 287.634 218.272 288.787L227.637 284.213C234.171 280.649 240.25 276.611 246.15 272.036C247.833 270.697 249.378 269.543 250.863 267.957L246.388 270.697L237.597 275.725L231.795 278.671L225.697 281.411L216.272 284.914C210.985 286.542 205.857 287.922 200.432 288.993L188.433 290.765L186.136 290.992L183.681 291.136C177.761 291.466 171.999 291.487 166.079 291.033C158.931 290.477 152.021 289.385 145.071 287.531C140.101 286.212 135.448 284.605 130.716 282.647L124.4 279.701C120.063 277.435 116.004 274.9 112.044 271.975L108.401 269.008C105.253 266.247 102.402 263.3 99.788 260.004L96.3824 254.956C92.4026 248.321 90.1058 240.904 89.7098 233.095C89.69 230.664 89.8088 228.418 90.0464 226.007C90.7988 220.918 92.1848 216.097 94.343 211.461C96.6002 206.619 99.392 202.333 102.718 198.233L105.768 194.648L109.708 190.548C109.708 190.548 109.985 190.713 109.945 190.692L108.183 192.629C106.441 194.545 104.817 196.461 103.194 198.542C100.758 201.757 98.6396 205.012 96.7586 208.618C94.7588 212.532 93.2342 216.509 92.2838 220.856C91.1552 225.987 90.8978 231.076 91.7294 236.268C92.5214 241.192 94.1054 245.684 96.4814 249.97C97.7288 252.236 99.1148 254.235 100.659 256.295C102.243 258.273 103.847 260.045 105.649 261.817C109.945 265.835 114.579 269.173 119.667 271.975L121.984 273.211C125.845 275.168 129.746 276.796 133.824 278.238L137.784 279.516C142.319 280.855 146.774 281.947 151.446 282.73L160.594 283.946L170.494 284.522L177.543 284.481L182.869 284.255C187.641 283.987 192.215 283.389 196.967 282.647L211.856 279.33C218.707 277.414 225.281 275.065 231.775 272.16L234.191 271.047L237.696 269.358L240.943 267.524L241.24 267.38L241.2 267.153L240.844 267.359L236.329 268.554L231.063 269.667C230.488 269.729 229.914 269.749 229.3 269.749L233.736 268.451L239.676 266.267L245.398 263.774L249.021 262.002C250.011 261.467 250.962 260.972 251.754 260.333L245.477 262.25L242.349 262.95L242.032 263.033C241.675 262.991 241.299 262.93 241.794 262.95L245.774 261.384L248.506 260.21L254.486 256.975C255.793 256.233 257.238 256.048 258.624 256.522C259.792 256.934 260.782 257.655 261.535 258.665C262.683 260.066 263.178 261.796 262.822 263.651C262.545 264.619 261.852 265.32 260.98 265.752L256.902 270.491V270.409Z" fill="white" fill-opacity="0.1"/>
<path fill-rule="evenodd" clip-rule="evenodd" d="M296.287 227.208C297.356 227.229 298.366 227.332 299.376 227.6C300.445 228.156 300.979 229.001 301.118 230.258C301.039 231.782 300.722 233.266 300.247 234.729L298.187 239.385C296.346 242.744 294.406 245.855 292.208 249.007L284.545 258.835L281.16 262.647L278.269 265.779L275.18 268.911L272.131 271.877L268.487 275.236L265.201 278.141L256.231 285.229L254.548 286.341C254.192 286.486 254.192 286.465 254.489 286.259L257.221 283.086L263.438 275.298C265.735 272.063 267.696 268.787 269.537 265.161L269.497 265.12C270.368 263.142 271.101 261.328 271.715 259.371C272.17 257.455 272.428 255.6 272.21 253.664C271.972 252.18 271.22 251.006 269.973 250.244C268.705 249.667 267.378 249.419 265.973 249.358C263.636 249.44 261.439 249.77 259.162 250.285L250.687 252.922L246.628 254.488L231.125 261.555C235.738 257.929 240.49 254.776 245.302 251.542L248.153 249.708L260.587 242.249L262.567 241.137L272.349 236.027L275.992 234.296L282.961 231.185L289.773 228.609C291.931 227.971 294.03 227.517 296.287 227.208ZM292.114 230.649C289.122 230.623 284.644 231.841 280.027 234.211C272.742 237.951 267.88 242.924 269.182 245.281C269.224 245.357 269.269 245.432 269.316 245.505C269.476 245.788 269.702 246.049 269.992 246.287C270.019 246.301 270.047 246.314 270.074 246.327C270.787 246.88 271.818 247.227 273.284 247.203C273.494 247.205 273.766 247.194 274.108 247.154C276.588 246.907 280.126 245.728 285.13 243.026C292.414 239.286 296.852 234.313 295.55 231.956C295.353 231.6 295.026 231.317 294.589 231.107C294.555 231.085 294.521 231.062 294.485 231.041L294.402 231.024C293.92 230.828 293.324 230.709 292.633 230.666L292.446 230.628C292.334 230.635 292.224 230.641 292.114 230.649Z" fill="white" fill-opacity="0.1"/>
<path d="M264.941 264.061C266.307 260.785 265.535 257.364 262.882 255.283C261.694 254.439 260.308 254.068 258.842 254.088L256.546 254.274C258.13 253.099 259.852 252.502 261.713 251.966H264.347C266.366 252.296 267.99 253.553 268.643 255.572C269.099 257.406 268.723 259.26 267.792 260.867C266.96 262.062 266.129 263.154 264.941 264.061Z" fill="white" fill-opacity="0.1"/>
<path d="M290.442 234.844C291.494 236.892 288.489 240.393 283.732 242.664C278.974 244.935 274.264 245.115 273.212 243.068C272.161 241.02 275.165 237.519 279.923 235.248C284.681 232.977 289.39 232.797 290.442 234.844Z" fill="white" fill-opacity="0.1"/>
<path d="M179.971 180.984C179.611 178.486 179.354 176.638 178.379 174.341L177.968 179.685C178.071 183.032 177.043 186.229 175.349 189.076C173.962 191.623 172.935 193.971 172.113 196.818L174.321 195.619C173.705 199.165 172.524 202.562 170.315 205.709C169.288 207.507 168.621 209.405 168.466 211.503L166.926 217.796C165.385 219.095 163.793 219.794 161.79 220.144L152.443 220.044L152.083 215.648L149.977 219.744C148.283 220.094 146.639 220.094 144.585 219.844L144.431 217.197L146.382 213.151C146.947 212.102 148.334 211.253 149.618 211.053L154.754 210.704C156.551 210.204 157.527 209.005 158.143 207.207L158.4 194.47L157.168 181.483L157.579 176.688C159.838 172.543 162.868 169.446 167.028 167.048L180.176 160.105C184.285 157.458 187.777 154.261 189.832 149.866L193.119 145.27C197.741 148.317 202.26 149.566 207.602 149.766C213.97 149.666 220.082 150.066 226.399 151.114C231.329 152.463 235.951 154.061 240.471 156.259C245.812 159.256 250.28 162.753 254.492 167.148L262.452 177.687C263.89 179.635 265.482 181.384 267.331 182.932C270.721 184.93 274.367 185.679 278.168 184.38C280.582 183.431 282.431 181.483 282.996 179.685C283.869 176.588 282.996 174.291 280.993 172.093C279.246 170.694 277.192 169.546 274.932 168.846C272.621 168.097 270.464 167.298 268.256 166.299C264.917 163.801 263.069 160.205 263.531 156.059C263.788 151.114 267.434 147.368 272.467 146.719C276.216 146.219 278.322 143.123 277.654 139.127C280.222 140.575 281.558 142.973 281.917 145.42C282.071 148.217 280.89 150.815 278.579 152.663C277.963 152.813 277.398 153.013 278.117 153.312L282.174 151.015C281.712 154.611 279.246 157.208 275.651 157.808L278.168 158.207C275.6 159.856 272.519 160.555 269.642 158.307C268.204 159.256 268.256 160.655 268.769 162.403L272.724 164.751L278.219 166.099C281.301 166.998 283.971 168.597 286.18 170.894C290.032 175.989 289.775 182.832 285.153 187.327C280.53 191.124 274.419 192.172 268.615 190.424C263.942 189.026 260.141 186.029 257.522 182.033L251.462 173.991L245.35 168.696L244.734 169.146C245.144 173.542 246.069 177.487 247.712 181.583C250.332 188.177 255.108 193.421 261.99 196.019C263.171 196.718 263.942 198.016 263.788 199.315C263.633 201.413 263.634 203.161 263.942 205.159L264.815 212.152C263.582 214.1 262.966 215.648 262.35 217.696C262.195 219.295 261.066 220.244 259.576 220.793L248.431 221.193L247.918 217.047C248.226 217.047 247.918 217.047 247.61 217.047L245.864 220.793C244.015 221.043 242.577 221.043 240.42 220.793L240.676 217.297L243.912 212.352L246.531 211.303L251.359 211.603L253.413 209.954C253.259 207.607 252.797 206.058 251.359 204.41L243.244 200.214L235.181 196.268C229.121 193.371 224.653 188.876 221.468 183.082L217.822 174.091L203.904 180.884C199.59 182.482 195.481 183.731 191.013 184.73H183.463C181.717 184.081 180.433 182.982 179.971 180.984Z" fill="white" fill-opacity="0.1"/>
<path d="M226.758 147.868C220.03 146.969 213.765 146.519 207.242 146.719C204.623 146.569 202.158 146.12 199.846 145.27C196.559 143.522 194.351 140.725 194.505 137.029L196.816 130.186L197.176 125.69C202.363 120.895 208.988 118.348 216.178 118.098C224.19 117.699 231.637 120.496 237.133 126.09C242.885 131.584 245.401 139.027 244.631 146.869C244.323 149.166 243.809 151.414 242.833 153.612C237.595 151.114 232.767 149.266 226.912 147.918L226.758 147.868Z" fill="white" fill-opacity="0.1"/>
<path d="M206.472 216.198L204.315 219.794C202.466 220.194 200.668 220.244 198.46 220.094L198.614 217.047C200.257 214.649 201.952 212.701 204.058 210.654H206.626C211.299 211.503 215.305 209.055 217 204.61L215.048 202.012C212.018 200.114 210.067 197.567 208.218 194.57C207.704 192.172 207.396 189.825 207.242 187.377C207.756 184.53 209.091 182.682 211.864 181.583C213.354 181.084 215.048 181.034 216.641 181.583L221.211 188.826C224.447 192.522 227.939 195.969 231.586 199.315C233.743 201.263 233.846 203.91 231.997 206.008L225.217 212.402C223.985 213.7 223.06 215.149 222.29 216.847C221.93 218.595 220.39 219.445 218.695 220.044L206.728 220.294L206.574 216.248L206.472 216.198Z" fill="white" fill-opacity="0.1"/>
<path d="M118.033 164.95L114.694 165.35L116.903 165.899C118.135 166.049 118.854 167.348 118.598 168.647L114.9 169.745L118.649 170.395C118.649 171.344 118.649 172.043 118.392 172.842C115.824 173.891 113.77 173.741 111.818 172.143L111.356 169.196C110.996 167.797 110.945 166.349 111.202 164.9L110.483 162.553L112.178 160.405L115.927 160.854C116.903 161.454 118.135 161.254 119.06 160.605C120.755 159.456 122.706 159.406 124.298 160.405L126.969 161.853C129.537 162.203 132.156 162.353 134.724 162.003L141.709 161.554L143.814 163.102L151.005 180.185C147.769 180.035 145.047 179.535 142.017 178.836L130.256 174.291C128.202 173.342 126.096 172.942 123.785 173.092L121.422 172.692C121.474 171.244 121.628 170.095 122.039 168.946L123.579 166.199L121.884 166.699C120.395 167.148 118.906 167.148 118.033 164.9V164.95Z" fill="white" fill-opacity="0.1"/>
<path d="M221.52 113.952L220.287 115.301L218.644 113.803L220.698 92.2746C221.109 91.6752 221.674 91.1258 222.29 90.6763C223.112 91.0259 223.779 91.7252 223.831 92.5244L221.52 113.952Z" fill="white" fill-opacity="0.1"/>
<path d="M236.516 119.647L234.616 120.246L233.743 118.348L238.262 112.354L246.685 100.766L248.996 100.466L249.099 102.614L243.193 110.456L236.516 119.647Z" fill="white" fill-opacity="0.1"/>
<path d="M205.496 116.05L204.571 117.998L202.774 116.8L197.895 102.314L196.2 97.0198L197.227 95.4714C197.792 95.6712 198.46 96.1207 198.973 96.5703L205.547 116.05H205.496Z" fill="white" fill-opacity="0.1"/>
<path d="M246.685 132.434L244.682 132.034C244.888 131.135 245.093 130.585 245.453 130.036L262.555 121.095H264.712C264.917 122.144 264.866 122.793 264.404 123.393L246.685 132.434Z" fill="white" fill-opacity="0.1"/>
<path d="M261.785 149.466L252.129 148.867L248.483 148.417L247.712 146.769L249.15 145.87L263.531 146.919L261.785 149.466Z" fill="white" fill-opacity="0.1"/>
<path d="M118.341 100.616L117.365 101.365V129.287L116.954 151.914H113.667L113.821 141.274L113.924 130.735V119.197C113.873 111.905 114.335 104.812 115.259 97.6192C115.927 94.4724 116.595 91.8251 117.827 88.7283C119.419 92.1248 120.036 95.1217 120.549 98.5682L121.833 111.555V130.735L121.987 152.113L118.7 151.914V131.734L118.392 126.939V100.616H118.341Z" fill="white" fill-opacity="0.1"/>
<path d="M126.455 159.106C124.606 158.207 122.706 157.907 120.857 158.157L113.359 158.007C111.613 158.157 109.867 158.607 108.172 159.306C106.785 159.606 105.707 159.756 104.166 159.905C103.19 157.258 102.985 155.66 102.985 152.663L108.429 153.362C114.9 155.16 121.679 155.11 128.099 153.062L132.875 152.763C132.567 155.71 132.31 157.158 131.591 159.905L126.558 159.156L126.455 159.106Z" fill="white" fill-opacity="0.1"/>
<path d="M120.344 179.635C118.392 180.085 117.262 180.085 115.567 179.635L113.924 177.837L114.489 175.09L119.06 174.74L121.371 176.738L120.344 179.635Z" fill="white" fill-opacity="0.1"/>
<path d="M213.046 113.403L212.481 115.251C211.659 115.001 211.043 114.602 210.529 114.052L209.245 105.111L210.426 103.763C211.094 104.063 211.762 104.612 211.916 105.111L212.994 113.353L213.046 113.403Z" fill="white" fill-opacity="0.1"/>
<path d="M229.48 115.651L227.888 116.7L227.015 115.051L230.61 106.41L232.305 105.811L233.024 107.559L229.48 115.651Z" fill="white" fill-opacity="0.1"/>
<path d="M248.945 140.176L247.764 139.576L247.815 137.978L256.803 136.03L258.344 137.179L257.111 138.727L248.945 140.176Z" fill="white" fill-opacity="0.1"/>
<path d="M242.577 125.041L240.933 125.64L240.111 124.092L247.199 117.898L249.15 118.098L248.74 119.996L242.577 125.041Z" fill="white" fill-opacity="0.1"/>
<path d="M158.452 168.547C157.733 167.398 157.065 165.749 156.397 164.051L157.579 155.76C155.627 157.708 154.292 160.105 153.264 162.802C152.751 165.999 152.648 168.996 153.162 171.843C149.721 169.446 147.872 166.049 147.101 162.103C146.126 156.609 147.769 151.114 151.056 146.669C146.742 148.267 144.893 152.213 144.277 156.159C142.171 153.162 142.222 149.916 142.633 146.669C143.66 143.123 145.509 139.876 148.129 137.179L150.902 133.932L151.21 132.434L149.464 131.285L144.842 132.484C143.044 133.033 141.298 132.234 140.579 130.585L140.733 129.137L142.376 128.837C144.739 128.687 146.742 128.438 148.899 128.038C147.41 127.888 146.331 127.888 144.842 127.988C143.506 127.788 142.068 127.439 140.784 127.089C139.295 125.591 138.833 123.992 140.425 122.444L140.887 120.596L137.6 121.695L135.854 119.796C136.059 118.748 136.47 117.848 137.189 117.099L141.966 114.852C143.763 113.653 145.201 112.304 146.177 110.406C146.691 109.357 147.82 108.558 149.002 108.358C151.261 107.809 152.854 107.309 154.908 106.41L151.107 106.16L150.286 103.863C151.159 99.8169 153.778 97.3694 157.527 95.871L162.149 94.9719L160.301 97.769C163.279 96.4204 166.155 95.9709 169.596 95.9209L173.962 97.4693C171.805 98.2186 170.624 98.5682 169.083 99.3174L176.016 99.5172L178.327 101.066C179.714 103.114 181.512 104.462 183.515 105.761L188.856 108.558L183.155 109.607L186.904 112.404C189.164 114.152 190.653 115.551 193.016 117.948L190.397 118.897L186.801 118.448C191.989 121.894 194.351 127.389 192.605 133.283C190.859 130.785 188.702 128.737 185.261 128.188L187.931 131.235C188.856 132.783 189.523 134.581 190.037 136.479C190.037 140.176 189.472 143.522 188.085 146.619C186.391 143.173 184.953 140.126 181.357 138.827C182.95 141.474 184.182 143.872 184.747 146.569C185.055 151.164 183.36 155.36 178.944 157.508C179.971 153.412 178.79 149.316 175.503 146.569L176.581 152.313C176.17 157.108 173.14 161.254 168.158 162.003C169.186 159.256 169.596 156.809 169.442 154.011C168.723 152.463 168.056 151.214 167.234 149.866C167.234 154.811 166.412 158.906 162.766 162.053C161.071 163.951 159.941 165.6 158.298 168.547H158.452ZM167.747 116.999L168.877 117.649L169.699 117.199L172.729 112.604L171.24 108.858L167.696 108.009C165.488 108.958 163.485 109.907 162.92 112.054L167.285 109.907L169.75 110.806L170.469 113.103L167.747 117.049V116.999ZM154.086 114.002C152.237 113.453 150.953 113.353 149.207 113.403L148.026 116.7C150.697 116.949 152.699 116.85 154.138 114.002H154.086Z" fill="white" fill-opacity="0.1"/>
<path d="M75.8002 102.692L60.5693 127.638C60.1796 128.276 59.6852 128.924 59.086 129.582C58.4797 130.211 57.792 130.791 57.0231 131.322C56.2651 131.835 55.433 132.267 54.5268 132.618C53.6025 132.958 52.6223 133.167 51.586 133.246C50.5425 133.296 49.4501 133.183 48.309 132.907C47.1498 132.621 45.9652 132.112 44.7552 131.383L25.685 119.882C25.0349 119.49 24.3829 119 23.7291 118.412C23.068 117.795 22.4738 117.109 21.9462 116.354C21.4007 115.589 20.9508 114.747 20.5965 113.83C20.2423 112.913 20.0288 111.947 19.9562 110.933C19.8763 109.89 19.9697 108.807 20.2365 107.682C20.5032 106.557 20.9992 105.401 21.7245 104.213L36.9554 79.2667L43.9984 83.5139L28.7675 108.46C28.2154 109.364 28.037 110.203 28.2323 110.975C28.4276 111.748 29.0038 112.423 29.961 113L48.977 124.468C49.88 125.013 50.7304 125.198 51.5284 125.024C52.319 124.822 52.985 124.277 53.5263 123.391L68.7573 98.4447L75.8002 102.692Z" fill="white" fill-opacity="0.1"/>
<path d="M122.08 44.4863C123.583 46.7587 124.568 49.1081 125.036 51.5345C125.504 53.9609 125.491 56.3288 124.998 58.638C124.504 60.9472 123.546 63.1257 122.122 65.1733C120.704 67.1922 118.857 68.9446 116.582 70.4305L107.269 76.5127C104.994 77.9986 102.634 78.9936 100.189 79.4975C97.733 79.984 95.3405 79.9942 93.012 79.528C90.6834 79.0619 88.4826 78.1397 86.4095 76.7615C84.3542 75.3718 82.5752 73.5408 81.0727 71.2684L76.3586 64.1392C74.8675 61.8842 73.888 59.5435 73.42 57.1171C72.9582 54.6618 72.9797 52.2882 73.4846 49.9963C73.9781 47.6871 74.9368 45.5086 76.3608 43.4609C77.7848 41.4132 79.6344 39.6464 81.9097 38.1604L91.2223 32.0783C93.4976 30.5923 95.8545 29.6118 98.2932 29.1368C100.749 28.6503 103.142 28.6401 105.47 29.1062C107.788 29.555 109.98 30.483 112.046 31.89C114.102 33.2797 115.875 35.1021 117.366 37.3571L122.08 44.4863ZM110.487 41.8496C109.604 40.5139 108.587 39.4524 107.435 38.6649C106.289 37.8485 105.067 37.3179 103.768 37.0731C102.476 36.7993 101.137 36.8172 99.7502 37.1266C98.3699 37.4071 97.0184 37.9793 95.6955 38.8433L86.3829 44.9254C85.0424 45.8009 83.96 46.8183 83.1355 47.9776C82.3173 49.1081 81.7694 50.3229 81.4918 51.6218C81.2028 52.9034 81.1991 54.2346 81.4808 55.6154C81.7686 56.9673 82.3541 58.3111 83.2373 59.6467L87.9514 66.776C88.8345 68.1116 89.8491 69.1876 90.995 70.0039C92.147 70.7914 93.378 71.3163 94.6878 71.5785C95.9862 71.8233 97.3255 71.8055 98.7058 71.525C100.092 71.2156 101.456 70.6231 102.796 69.7477L112.056 63.7001C113.396 62.8247 114.476 61.8217 115.294 60.6912C116.118 59.5318 116.675 58.3113 116.964 57.0298C117.242 55.7308 117.237 54.4054 116.949 53.0535C116.667 51.6727 116.085 50.3145 115.201 48.9788L110.487 41.8496Z" fill="white" fill-opacity="0.1"/>
<path d="M195.681 33.4685C195.889 35.0415 195.866 36.4887 195.612 37.8104C195.376 39.1088 194.984 40.2821 194.436 41.3304C193.889 42.3786 193.206 43.299 192.388 44.0915C191.571 44.8841 190.705 45.5582 189.792 46.1139C188.879 46.6695 187.93 47.1156 186.945 47.4521C185.981 47.7858 185.056 48.0105 184.17 48.1261L152.446 52.2695L151.393 44.3026L183.117 40.1592C184.698 39.9527 185.862 39.3435 186.607 38.3318C187.374 37.3173 187.658 36.0542 187.458 34.5426C187.36 33.8071 187.155 33.1482 186.842 32.5656C186.529 31.9831 186.122 31.496 185.619 31.1044C185.138 30.7101 184.565 30.4317 183.9 30.2692C183.256 30.1039 182.555 30.0708 181.796 30.17L162.881 32.6403C161.553 32.8138 160.089 32.7763 158.491 32.5279C156.889 32.2591 155.357 31.7008 153.893 30.8529C152.451 30.0022 151.178 28.8074 150.073 27.2684C148.99 25.7267 148.29 23.7607 147.974 21.3707C147.658 18.9806 147.824 16.912 148.473 15.1648C149.14 13.3945 150.059 11.9133 151.231 10.7211C152.422 9.5058 153.757 8.57291 155.237 7.92246C156.714 7.25157 158.117 6.82938 159.446 6.65588L187.437 3L188.491 10.9669L160.499 14.6228C158.939 14.8266 157.776 15.4459 157.012 16.4809C156.269 17.513 155.998 18.785 156.198 20.2966C156.4 21.8287 156.993 22.9877 157.977 23.7737C158.978 24.5364 160.26 24.8159 161.82 24.6121L180.797 22.1335C181.686 22.0383 182.64 22.0383 183.661 22.1336C184.679 22.2084 185.703 22.4072 186.732 22.7299C187.783 23.0499 188.797 23.4993 189.774 24.0782C190.749 24.6367 191.637 25.3519 192.439 26.2239C193.262 27.0931 193.956 28.1246 194.521 29.3184C195.087 30.5122 195.473 31.8956 195.681 33.4685Z" fill="white" fill-opacity="0.1"/>
<path d="M269.676 65.9388L261.822 63.1604L270.75 38.2341L248.453 57.0167C247.897 57.4997 247.253 57.7873 246.522 57.8795C245.811 57.9787 245.106 57.9046 244.407 57.6572C243.727 57.4168 243.143 57.0349 242.655 56.5115C242.187 55.9951 241.892 55.3753 241.768 54.6519L236.367 26.0707L227.439 50.997L219.645 48.2399L233.476 9.62451C233.79 8.74888 234.328 8.06245 235.092 7.56521C235.875 7.07505 236.738 6.86521 237.681 6.93571C238.136 6.98688 238.566 7.10615 238.972 7.29353C239.384 7.46145 239.753 7.69041 240.077 7.9804C240.428 8.258 240.714 8.58957 240.936 8.97511C241.166 9.34118 241.324 9.74796 241.411 10.1954L248.4 46.5075L276.903 22.7512C277.628 22.1744 278.445 21.8717 279.356 21.8431C280.287 21.8216 281.154 22.0735 281.957 22.5986C282.712 23.129 283.238 23.8302 283.534 24.7021C283.829 25.574 283.82 26.4478 283.507 27.3234L269.676 65.9388Z" fill="white" fill-opacity="0.1"/>
<path d="M294.76 87.4652L288.52 82.1698L317.786 48.1115L324.026 53.4069L294.76 87.4652Z" fill="white" fill-opacity="0.1"/>
<path d="M333.72 138.514L318.489 113.568C318.099 112.93 317.749 112.195 317.439 111.363C317.158 110.538 316.958 109.664 316.839 108.741C316.731 107.836 316.73 106.903 316.835 105.942C316.958 104.97 317.224 104.009 317.632 103.06C318.069 102.117 318.675 101.206 319.448 100.327C320.239 99.4379 321.239 98.6283 322.449 97.8987L341.52 86.3984C342.17 86.0063 342.908 85.6579 343.735 85.3533C344.591 85.0554 345.478 84.8483 346.395 84.7318C347.33 84.6044 348.289 84.5964 349.271 84.7076C350.253 84.8188 351.214 85.0766 352.152 85.4808C353.12 85.8919 354.044 86.4748 354.925 87.2293C355.805 87.9839 356.608 88.9551 357.334 90.143L372.565 115.089L365.522 119.336L350.291 94.3903C349.739 93.486 349.073 92.9416 348.293 92.7569C347.513 92.5723 346.644 92.7685 345.687 93.3457L326.671 104.813C325.768 105.358 325.21 106.022 324.997 106.806C324.812 107.596 324.991 108.435 325.532 109.321L340.763 134.267L333.72 138.514Z" fill="white" fill-opacity="0.1"/>
</g>
<defs>
<filter id="filter0_dn_2038_2" x="0" y="0" width="390" height="390" filterUnits="userSpaceOnUse" color-interpolation-filters="sRGB">
<feFlood flood-opacity="0" result="BackgroundImageFix"/>
<feColorMatrix in="SourceAlpha" type="matrix" values="0 0 0 0 0 0 0 0 0 0 0 0 0 0 0 0 0 0 127 0" result="hardAlpha"/>
<feOffset dy="2"/>
<feGaussianBlur stdDeviation="2.5"/>
<feColorMatrix type="matrix" values="0 0 0 0 0 0 0 0 0 0 0 0 0 0 0 0 0 0 1 0"/>
<feBlend mode="normal" in2="BackgroundImageFix" result="effect1_dropShadow_2038_2"/>
<feBlend mode="normal" in="SourceGraphic" in2="BackgroundImageFix" result="shape"/>
<feTurbulence type="fractalNoise" baseFrequency="1 1" stitchTiles="stitch" numOctaves="3" result="noise" seed="8034" />
<feColorMatrix in="noise" type="luminanceToAlpha" result="alphaNoise" />
<feComponentTransfer in="alphaNoise" result="coloredNoise1">
<feFuncA type="discrete" tableValues="1 1 1 1 1 1 1 1 1 1 1 1 1 1 1 1 1 1 1 1 1 1 1 1 1 1 1 1 1 1 1 1 1 1 1 1 1 1 1 1 1 1 1 1 1 1 1 1 1 1 1 0 0 0 0 0 0 0 0 0 0 0 0 0 0 0 0 0 0 0 0 0 0 0 0 0 0 0 0 0 0 0 0 0 0 0 0 0 0 0 0 0 0 0 0 0 0 0 0 0 "/>
</feComponentTransfer>
<feComposite operator="in" in2="shape" in="coloredNoise1" result="noise1Clipped" />
<feComponentTransfer in="alphaNoise" result="coloredNoise2">
<feFuncA type="discrete" tableValues="0 0 0 0 0 0 0 0 0 0 0 0 0 0 0 0 0 0 0 0 0 0 0 0 0 0 0 0 0 0 0 0 0 0 0 0 0 0 0 0 0 0 0 0 0 0 0 0 0 1 1 1 1 1 1 1 1 1 1 1 1 1 1 1 1 1 1 1 1 1 1 1 1 1 1 1 1 1 1 1 1 1 1 1 1 1 1 1 1 1 1 1 1 1 1 1 1 1 1 1 "/>
</feComponentTransfer>
<feComposite operator="in" in2="shape" in="coloredNoise2" result="noise2Clipped" />
<feFlood flood-color="#000000" result="color1Flood" />
<feComposite operator="in" in2="noise1Clipped" in="color1Flood" result="color1" />
<feFlood flood-color="rgba(255, 255, 255, 0.49)" result="color2Flood" />
<feComposite operator="in" in2="noise2Clipped" in="color2Flood" result="color2" />
<feMerge result="effect2_noise_2038_2">
<feMergeNode in="shape" />
<feMergeNode in="color1" />
<feMergeNode in="color2" />
</feMerge>
<feBlend mode="normal" in="effect2_noise_2038_2" in2="effect1_dropShadow_2038_2" result="effect2_noise_2038_2"/>
</filter>
</defs>
</svg>
