<svg width="404" height="404" viewBox="0 0 404 404" fill="none" xmlns="http://www.w3.org/2000/svg">
<g filter="url(#filter0_dd_2024_602)">
<path d="M11.9771 217.055L11.9 209.024L57.6653 208.612L57.7424 216.644L11.9771 217.055Z" fill="white"/>
<path d="M37.7568 300.72C37.1975 300.918 36.6378 300.996 36.0778 300.954C35.5251 300.93 35.003 300.809 34.5116 300.588C34.0475 300.38 33.6276 300.079 33.252 299.686C32.8764 299.293 32.5897 298.836 32.3919 298.314C32.2161 297.849 32.1265 297.344 32.1232 296.797C32.1271 296.269 32.2593 295.75 32.5196 295.241L51.805 257.137L21.5409 267.88L18.6839 260.339L58.3268 246.267C59.1258 245.983 59.9256 245.941 60.726 246.139C61.5537 246.35 62.2556 246.737 62.8316 247.3C63.4023 247.909 63.7506 248.619 63.8765 249.43C64.0223 250.234 63.9082 251.009 63.534 251.756L44.2786 289.85L74.5427 279.107L77.3997 286.648L37.7568 300.72Z" fill="white"/>
<path d="M118.678 328.032L71.6342 341.886C70.9043 342.095 70.1592 342.092 69.399 341.878C68.6377 341.693 67.9809 341.315 67.4288 340.743C66.8912 340.186 66.5453 339.527 66.3912 338.764C66.2361 338.03 66.2837 337.311 66.5341 336.605L84.0012 292.129L90.3436 298.696L77.2443 331.862L112.357 321.488L118.678 328.032Z" fill="white"/>
<path d="M153.748 370.646L129.878 360.187L133.326 352.813L157.197 363.273L153.748 370.646ZM149.437 388.628L122.165 376.678C121.118 376.219 120.058 375.54 118.984 374.64C117.91 373.74 117.029 372.653 116.34 371.379C115.679 370.095 115.293 368.649 115.181 367.04C115.098 365.421 115.499 363.664 116.385 361.769L128.731 335.371C128.968 334.864 129.289 334.428 129.693 334.063C130.098 333.698 130.544 333.418 131.031 333.225C131.538 333.04 132.068 332.956 132.621 332.972C133.174 332.988 133.722 333.115 134.264 333.353L168.312 348.272L164.89 355.589L134.593 342.314L123.945 365.081C123.497 366.038 123.417 366.884 123.703 367.62C123.99 368.356 124.637 368.945 125.645 369.387L152.859 381.311L149.437 388.628Z" fill="white"/>
<path d="M228.206 390.967C228.189 391.543 228.056 392.075 227.808 392.563C227.581 393.051 227.271 393.475 226.877 393.835C226.506 394.176 226.062 394.442 225.545 394.634C225.029 394.826 224.483 394.914 223.909 394.898C223.399 394.884 222.88 394.778 222.354 394.578C221.849 394.379 221.4 394.068 221.008 393.645L191.588 362.189L190.684 393.378L182.389 393.152L183.573 352.299C183.597 351.475 183.853 350.74 184.34 350.094C184.849 349.428 185.48 348.941 186.234 348.631C187.03 348.344 187.84 348.294 188.665 348.481C189.49 348.648 190.192 349.038 190.77 349.651L220.191 381.076L221.095 349.887L229.39 350.113L228.206 390.967Z" fill="white"/>
<path d="M283.843 337.67L266.701 343.838L279.757 377.832L271.979 380.63L258.923 346.636L241.752 352.815L238.86 345.286L280.952 330.141L283.843 337.67Z" fill="white"/>
<path d="M342.456 310.184C344.331 312.18 345.701 314.328 346.567 316.628C347.433 318.928 347.809 321.241 347.694 323.569C347.58 325.896 346.979 328.164 345.891 330.374C344.805 332.555 343.246 334.538 341.215 336.326L332.902 343.64C330.871 345.427 328.675 346.748 326.313 347.601C323.938 348.439 321.547 348.803 319.143 348.692C316.738 348.581 314.387 348.006 312.088 346.967C309.805 345.914 307.726 344.39 305.851 342.393L299.969 336.13C298.108 334.149 296.745 332.009 295.879 329.709C295.015 327.381 294.647 325.06 294.776 322.748C294.89 320.421 295.491 318.152 296.579 315.942C297.667 313.733 299.226 311.734 301.257 309.947L309.57 302.633C311.601 300.846 313.796 299.54 316.156 298.716C318.532 297.877 320.922 297.514 323.327 297.625C325.717 297.72 328.061 298.302 330.358 299.37C332.641 300.423 334.713 301.94 336.573 303.921L342.456 310.184ZM330.433 309.324C329.331 308.15 328.14 307.265 326.859 306.666C325.579 306.039 324.27 305.701 322.932 305.654C321.595 305.578 320.259 305.793 318.924 306.3C317.59 306.778 316.332 307.537 315.152 308.576L306.839 315.89C305.642 316.943 304.727 318.097 304.093 319.35C303.46 320.575 303.112 321.842 303.048 323.151C302.969 324.445 303.183 325.745 303.692 327.051C304.201 328.329 305.007 329.554 306.109 330.727L311.992 336.991C313.094 338.164 314.284 339.064 315.564 339.692C316.845 340.291 318.162 340.621 319.514 340.683C320.852 340.73 322.189 340.515 323.522 340.037C324.858 339.53 326.124 338.75 327.32 337.697L335.586 330.424C336.782 329.371 337.697 328.232 338.33 327.008C338.964 325.754 339.32 324.48 339.399 323.186C339.463 321.877 339.24 320.584 338.731 319.307C338.223 318 337.418 316.76 336.316 315.587L330.433 309.324Z" fill="white"/>
<path d="M360.784 246.376C362.487 247.179 363.904 248.1 365.038 249.139C366.171 250.179 367.077 251.294 367.756 252.484C368.424 253.648 368.894 254.854 369.163 256.104C369.433 257.355 369.555 258.592 369.53 259.817C369.494 261.015 369.326 262.173 369.023 263.29C368.73 264.389 368.359 265.383 367.912 266.271L388.962 257.544L383.338 268.706L362.302 277.406L359.687 282.598L352.228 279.078L360.453 262.751C360.834 261.808 361.057 260.894 361.124 260.009C361.182 259.096 361.078 258.246 360.813 257.456C360.557 256.648 360.131 255.92 359.534 255.272C358.918 254.614 358.123 254.055 357.147 253.595L352.443 251.375C352.022 251.176 351.679 251.083 351.412 251.094C351.136 251.079 350.908 251.131 350.729 251.253C350.539 251.347 350.388 251.482 350.276 251.658C350.173 251.816 350.084 251.968 350.01 252.116L338.007 275.94L371.686 291.836L368.049 299.055L330.67 281.413C330.153 281.169 329.712 280.847 329.347 280.445C328.981 280.043 328.705 279.604 328.519 279.126C328.343 278.631 328.271 278.116 328.304 277.581C328.336 277.047 328.483 276.52 328.744 276.002L342.551 248.596C343.362 246.986 344.354 245.77 345.525 244.948C346.678 244.117 347.885 243.576 349.148 243.324C350.402 243.045 351.629 243.005 352.83 243.206C354.04 243.387 355.104 243.695 356.022 244.128L360.784 246.376Z" fill="white"/>
<path d="M362.863 192.506C364.752 192.636 366.422 192.989 367.873 193.564C369.325 194.119 370.596 194.816 371.686 195.656C372.755 196.493 373.654 197.454 374.385 198.537C375.117 199.599 375.708 200.693 376.158 201.819C376.587 202.943 376.877 204.077 377.027 205.223C377.178 206.349 377.218 207.405 377.145 208.391L376.906 211.626L391.9 212.664L391.304 220.737L376.31 219.699L376.073 222.904C376 223.89 375.805 224.94 375.488 226.053C375.173 227.146 374.72 228.23 374.128 229.304C373.517 230.356 372.771 231.357 371.891 232.308C371.01 233.259 369.978 234.086 368.796 234.788C367.594 235.469 366.232 235.994 364.712 236.364C363.171 236.712 361.468 236.821 359.6 236.692L344.319 235.634L344.911 227.623L360.192 228.68C361.274 228.755 362.262 228.658 363.157 228.39C364.03 228.12 364.796 227.708 365.456 227.155C366.115 226.602 366.646 225.916 367.048 225.098C367.43 224.257 367.659 223.313 367.737 222.265L368.804 207.814C368.733 207.045 368.632 206.253 368.5 205.439C368.347 204.623 368.05 203.869 367.611 203.178C367.171 202.487 366.532 201.896 365.694 201.404C364.856 200.913 363.715 200.617 362.272 200.517L346.991 199.46L347.583 191.448L362.863 192.506Z" fill="white"/>
<path d="M263.802 282.309L260.554 285.379L257.604 287.81L260.475 284.513L263.643 280.228L255.961 285.585L248.595 290.179L242.2 293.579L236.299 296.361C232.597 297.927 229.053 299.534 225.172 300.687L234.537 296.113C241.071 292.549 247.15 288.511 253.05 283.936C254.733 282.597 256.278 281.443 257.763 279.857L253.288 282.597L244.497 287.625L238.695 290.571L232.597 293.311L223.172 296.814C217.885 298.442 212.757 299.822 207.332 300.894L195.333 302.665L193.036 302.892L190.581 303.036C184.661 303.366 178.899 303.387 172.979 302.933C165.831 302.377 158.921 301.285 151.971 299.431C147.001 298.112 142.348 296.505 137.616 294.548L131.3 291.601C126.963 289.335 122.904 286.8 118.944 283.875L115.301 280.908C112.153 278.147 109.302 275.2 106.688 271.904L103.282 266.856C99.3026 260.221 97.0058 252.804 96.6098 244.995C96.59 242.564 96.7088 240.318 96.9464 237.907C97.6988 232.818 99.0848 227.997 101.243 223.361C103.5 218.519 106.292 214.233 109.618 210.133L112.668 206.548L116.608 202.448C116.608 202.448 116.885 202.613 116.845 202.592L115.083 204.529C113.341 206.445 111.717 208.361 110.094 210.442C107.658 213.657 105.54 216.912 103.659 220.518C101.659 224.432 100.134 228.409 99.1838 232.756C98.0552 237.887 97.7978 242.976 98.6294 248.168C99.4214 253.092 101.005 257.584 103.381 261.87C104.629 264.136 106.015 266.135 107.559 268.195C109.143 270.173 110.747 271.945 112.549 273.717C116.845 277.735 121.479 281.073 126.567 283.875L128.884 285.111C132.745 287.068 136.646 288.696 140.724 290.138L144.684 291.416C149.219 292.755 153.674 293.847 158.346 294.63L167.494 295.846L177.394 296.422L184.443 296.381L189.769 296.155C194.541 295.887 199.115 295.289 203.867 294.548L218.756 291.23C225.607 289.314 232.181 286.965 238.675 284.06L241.091 282.948L244.596 281.258L247.843 279.424L248.14 279.28L248.1 279.053L247.744 279.259L243.229 280.454L237.963 281.567C237.388 281.629 236.814 281.649 236.2 281.649L240.636 280.351L246.576 278.167L252.298 275.674L255.921 273.902C256.911 273.367 257.862 272.872 258.654 272.233L252.377 274.15L249.249 274.85L248.932 274.933C248.575 274.891 248.199 274.83 248.694 274.85L252.674 273.284L255.406 272.11L261.386 268.875C262.693 268.133 264.138 267.948 265.524 268.422C266.692 268.834 267.682 269.555 268.435 270.565C269.583 271.966 270.078 273.696 269.722 275.551C269.445 276.519 268.752 277.22 267.88 277.652L263.802 282.391V282.309Z" fill="white"/>
<path fill-rule="evenodd" clip-rule="evenodd" d="M303.187 239.108C304.256 239.129 305.266 239.232 306.276 239.5C307.345 240.056 307.879 240.901 308.018 242.158C307.939 243.682 307.622 245.166 307.147 246.629L305.087 251.285C303.246 254.644 301.306 257.755 299.108 260.907L291.445 270.735L288.06 274.547L285.169 277.679L282.08 280.811L279.031 283.777L275.387 287.136L272.101 290.041L263.131 297.129L261.448 298.241C261.092 298.386 261.092 298.365 261.389 298.159L264.121 294.986L270.338 287.198C272.635 283.963 274.596 280.687 276.437 277.061L276.397 277.02C277.268 275.042 278.001 273.228 278.615 271.271C279.07 269.355 279.328 267.5 279.11 265.564C278.872 264.08 278.12 262.906 276.873 262.144C275.605 261.567 274.278 261.319 272.873 261.258C270.536 261.34 268.339 261.67 266.062 262.185L257.587 264.822L253.528 266.388L238.025 273.455C242.638 269.829 247.39 266.676 252.202 263.442L255.053 261.608L267.487 254.149L269.467 253.037L279.249 247.927L282.892 246.196L289.861 243.085L296.673 240.509C298.831 239.871 300.93 239.417 303.187 239.108ZM299.014 242.549C296.022 242.523 291.544 243.741 286.927 246.111C279.642 249.851 274.78 254.824 276.082 257.181C276.124 257.257 276.169 257.332 276.216 257.405C276.376 257.688 276.602 257.949 276.892 258.187C276.919 258.201 276.947 258.214 276.974 258.228C277.687 258.78 278.718 259.127 280.184 259.103C280.394 259.105 280.666 259.094 281.008 259.054C283.488 258.807 287.026 257.628 292.03 254.926C299.314 251.187 303.752 246.213 302.45 243.856C302.253 243.5 301.926 243.217 301.489 243.007C301.455 242.985 301.421 242.962 301.385 242.941L301.302 242.924C300.82 242.728 300.224 242.609 299.533 242.566L299.346 242.528C299.234 242.535 299.124 242.541 299.014 242.549Z" fill="white"/>
<path d="M271.841 275.961C273.207 272.685 272.435 269.264 269.782 267.183C268.594 266.339 267.208 265.968 265.742 265.988L263.446 266.174C265.03 264.999 266.752 264.402 268.613 263.866H271.247C273.266 264.196 274.89 265.453 275.543 267.472C275.999 269.306 275.623 271.16 274.692 272.767C273.86 273.962 273.029 275.054 271.841 275.961Z" fill="white"/>
<path d="M297.342 246.744C298.394 248.792 295.389 252.293 290.632 254.564C285.874 256.835 281.164 257.015 280.112 254.968C279.061 252.92 282.065 249.419 286.823 247.148C291.581 244.877 296.29 244.697 297.342 246.744Z" fill="white"/>
<path d="M186.871 192.884C186.511 190.386 186.254 188.538 185.279 186.241L184.868 191.585C184.971 194.932 183.943 198.129 182.249 200.976C180.862 203.523 179.835 205.871 179.013 208.718L181.221 207.519C180.605 211.065 179.424 214.462 177.215 217.609C176.188 219.407 175.521 221.305 175.366 223.403L173.826 229.696C172.285 230.995 170.693 231.694 168.69 232.044L159.343 231.944L158.983 227.548L156.877 231.644C155.183 231.994 153.539 231.994 151.485 231.744L151.331 229.097L153.282 225.051C153.847 224.002 155.234 223.153 156.518 222.953L161.654 222.604C163.451 222.104 164.427 220.905 165.043 219.107L165.3 206.37L164.068 193.383L164.479 188.588C166.738 184.443 169.768 181.346 173.928 178.948L187.076 172.005C191.185 169.358 194.677 166.161 196.732 161.766L200.018 157.17C204.641 160.217 209.16 161.466 214.502 161.666C220.87 161.566 226.982 161.966 233.299 163.014C238.229 164.363 242.851 165.961 247.371 168.159C252.712 171.156 257.18 174.653 261.392 179.048L269.352 189.587C270.79 191.535 272.382 193.284 274.231 194.832C277.621 196.83 281.267 197.579 285.068 196.28C287.482 195.331 289.331 193.383 289.896 191.585C290.769 188.488 289.896 186.191 287.893 183.993C286.146 182.594 284.092 181.446 281.832 180.746C279.521 179.997 277.364 179.198 275.156 178.199C271.817 175.702 269.969 172.105 270.431 167.959C270.688 163.014 274.334 159.268 279.367 158.619C283.116 158.119 285.222 155.023 284.554 151.027C287.122 152.475 288.458 154.873 288.817 157.32C288.971 160.117 287.79 162.715 285.479 164.563C284.862 164.713 284.298 164.913 285.017 165.212L289.074 162.915C288.612 166.511 286.146 169.108 282.551 169.708L285.068 170.107C282.5 171.756 279.418 172.455 276.542 170.207C275.104 171.156 275.156 172.555 275.669 174.303L279.624 176.651L285.119 177.999C288.201 178.898 290.871 180.497 293.08 182.794C296.932 187.889 296.675 194.732 292.053 199.227C287.43 203.024 281.319 204.072 275.515 202.324C270.842 200.926 267.041 197.929 264.422 193.933L258.362 185.891L252.25 180.597L251.634 181.046C252.044 185.442 252.969 189.388 254.612 193.483C257.232 200.077 262.008 205.321 268.89 207.919C270.071 208.618 270.842 209.916 270.688 211.215C270.533 213.313 270.534 215.061 270.842 217.059L271.715 224.052C270.482 226 269.866 227.548 269.25 229.596C269.095 231.195 267.966 232.144 266.476 232.693L255.331 233.093L254.818 228.947C255.126 228.947 254.818 228.947 254.51 228.947L252.764 232.693C250.915 232.943 249.477 232.943 247.32 232.693L247.576 229.197L250.812 224.252L253.431 223.203L258.259 223.503L260.313 221.854C260.159 219.507 259.697 217.958 258.259 216.31L250.144 212.114L242.081 208.168C236.021 205.271 231.553 200.776 228.368 194.982L224.722 185.991L210.804 192.784C206.49 194.382 202.381 195.631 197.913 196.63H190.363C188.617 195.981 187.333 194.882 186.871 192.884Z" fill="white"/>
<path d="M233.658 159.768C226.93 158.869 220.665 158.419 214.142 158.619C211.523 158.469 209.058 158.02 206.746 157.17C203.459 155.422 201.251 152.625 201.405 148.929L203.716 142.086L204.076 137.59C209.263 132.795 215.888 130.248 223.078 129.998C231.09 129.599 238.537 132.396 244.033 137.99C249.785 143.484 252.301 150.927 251.531 158.769C251.223 161.066 250.709 163.314 249.733 165.512C244.495 163.014 239.667 161.166 233.812 159.818L233.658 159.768Z" fill="white"/>
<path d="M213.372 228.098L211.215 231.694C209.366 232.094 207.568 232.144 205.36 231.994L205.514 228.947C207.157 226.549 208.852 224.601 210.958 222.554H213.526C218.199 223.403 222.205 220.955 223.9 216.51L221.948 213.912C218.918 212.014 216.967 209.467 215.118 206.47C214.604 204.072 214.296 201.725 214.142 199.277C214.656 196.43 215.991 194.582 218.764 193.483C220.254 192.984 221.948 192.934 223.541 193.483L228.111 200.726C231.347 204.422 234.839 207.869 238.486 211.215C240.643 213.163 240.746 215.81 238.897 217.908L232.117 224.302C230.885 225.6 229.96 227.049 229.19 228.747C228.83 230.495 227.29 231.345 225.595 231.944L213.628 232.194L213.474 228.148L213.372 228.098Z" fill="white"/>
<path d="M124.933 176.85L121.594 177.25L123.803 177.799C125.035 177.949 125.754 179.248 125.498 180.547L121.8 181.645L125.549 182.295C125.549 183.244 125.549 183.943 125.292 184.742C122.724 185.791 120.67 185.641 118.718 184.043L118.256 181.096C117.896 179.697 117.845 178.249 118.102 176.8L117.383 174.453L119.078 172.305L122.827 172.754C123.803 173.354 125.035 173.154 125.96 172.505C127.655 171.356 129.606 171.306 131.198 172.305L133.869 173.753C136.437 174.103 139.056 174.253 141.624 173.903L148.609 173.454L150.714 175.002L157.905 192.085C154.669 191.935 151.947 191.435 148.917 190.736L137.156 186.191C135.102 185.242 132.996 184.842 130.685 184.992L128.322 184.592C128.374 183.144 128.528 181.995 128.939 180.846L130.479 178.099L128.784 178.599C127.295 179.048 125.806 179.048 124.933 176.8V176.85Z" fill="white"/>
<path d="M228.42 125.852L227.187 127.201L225.544 125.703L227.598 104.175C228.009 103.575 228.574 103.026 229.19 102.576C230.012 102.926 230.679 103.625 230.731 104.424L228.42 125.852Z" fill="white"/>
<path d="M243.416 131.547L241.516 132.146L240.643 130.248L245.162 124.254L253.585 112.666L255.896 112.366L255.999 114.514L250.093 122.356L243.416 131.547Z" fill="white"/>
<path d="M212.396 127.95L211.471 129.898L209.674 128.7L204.795 114.214L203.1 108.92L204.127 107.371C204.692 107.571 205.36 108.021 205.873 108.47L212.447 127.95H212.396Z" fill="white"/>
<path d="M253.585 144.334L251.582 143.934C251.788 143.035 251.993 142.485 252.353 141.936L269.455 132.995H271.612C271.817 134.044 271.766 134.693 271.304 135.293L253.585 144.334Z" fill="white"/>
<path d="M268.685 161.366L259.029 160.767L255.383 160.317L254.612 158.669L256.05 157.77L270.431 158.819L268.685 161.366Z" fill="white"/>
<path d="M125.241 112.516L124.265 113.265V141.187L123.854 163.814H120.567L120.721 153.175L120.824 142.635V131.097C120.773 123.805 121.235 116.712 122.159 109.519C122.827 106.372 123.495 103.725 124.727 100.628C126.319 104.025 126.936 107.022 127.449 110.468L128.733 123.455V142.635L128.887 164.013L125.6 163.814V143.634L125.292 138.839V112.516H125.241Z" fill="white"/>
<path d="M133.355 171.006C131.506 170.107 129.606 169.808 127.757 170.057L120.259 169.907C118.513 170.057 116.767 170.507 115.072 171.206C113.685 171.506 112.607 171.656 111.066 171.805C110.09 169.158 109.885 167.56 109.885 164.563L115.329 165.262C121.8 167.06 128.579 167.01 134.999 164.962L139.775 164.663C139.467 167.61 139.21 169.058 138.491 171.805L133.458 171.056L133.355 171.006Z" fill="white"/>
<path d="M127.244 191.535C125.292 191.985 124.162 191.985 122.467 191.535L120.824 189.737L121.389 186.99L125.96 186.64L128.271 188.638L127.244 191.535Z" fill="white"/>
<path d="M219.946 125.303L219.381 127.151C218.559 126.901 217.943 126.502 217.429 125.952L216.145 117.012L217.326 115.663C217.994 115.963 218.662 116.512 218.816 117.012L219.894 125.253L219.946 125.303Z" fill="white"/>
<path d="M236.38 127.551L234.788 128.6L233.915 126.951L237.51 118.31L239.205 117.711L239.924 119.459L236.38 127.551Z" fill="white"/>
<path d="M255.845 152.076L254.664 151.476L254.715 149.878L263.703 147.93L265.244 149.079L264.011 150.627L255.845 152.076Z" fill="white"/>
<path d="M249.477 136.941L247.833 137.541L247.011 135.992L254.099 129.798L256.05 129.998L255.64 131.896L249.477 136.941Z" fill="white"/>
<path d="M165.352 180.447C164.633 179.298 163.965 177.649 163.297 175.951L164.479 167.66C162.527 169.608 161.192 172.005 160.164 174.703C159.651 177.899 159.548 180.896 160.062 183.743C156.621 181.346 154.772 177.949 154.001 174.003C153.026 168.509 154.669 163.014 157.956 158.569C153.642 160.167 151.793 164.113 151.177 168.059C149.071 165.062 149.122 161.816 149.533 158.569C150.56 155.023 152.409 151.776 155.029 149.079L157.802 145.832L158.11 144.334L156.364 143.185L151.742 144.384C149.944 144.933 148.198 144.134 147.479 142.485L147.633 141.037L149.276 140.737C151.639 140.587 153.642 140.338 155.799 139.938C154.31 139.788 153.231 139.788 151.742 139.888C150.406 139.688 148.968 139.339 147.684 138.989C146.195 137.491 145.733 135.892 147.325 134.344L147.787 132.496L144.5 133.595L142.754 131.697C142.959 130.648 143.37 129.749 144.089 128.999L148.866 126.752C150.663 125.553 152.101 124.204 153.077 122.306C153.591 121.257 154.72 120.458 155.902 120.258C158.161 119.709 159.754 119.209 161.808 118.31L158.007 118.06L157.186 115.763C158.059 111.717 160.678 109.269 164.427 107.771L169.049 106.872L167.201 109.669C170.179 108.32 173.055 107.871 176.496 107.821L180.862 109.369C178.705 110.119 177.524 110.468 175.983 111.217L182.916 111.417L185.227 112.966C186.614 115.014 188.412 116.362 190.415 117.661L195.756 120.458L190.055 121.507L193.804 124.304C196.064 126.052 197.553 127.451 199.916 129.848L197.297 130.797L193.701 130.348C198.889 133.794 201.251 139.289 199.505 145.183C197.759 142.685 195.602 140.637 192.161 140.088L194.831 143.135C195.756 144.683 196.423 146.481 196.937 148.379C196.937 152.076 196.372 155.422 194.985 158.519C193.291 155.073 191.853 152.026 188.257 150.727C189.85 153.374 191.082 155.772 191.647 158.469C191.955 163.064 190.26 167.26 185.844 169.408C186.871 165.312 185.69 161.216 182.403 158.469L183.481 164.213C183.07 169.008 180.04 173.154 175.058 173.903C176.086 171.156 176.496 168.709 176.342 165.912C175.623 164.363 174.956 163.114 174.134 161.766C174.134 166.711 173.312 170.806 169.666 173.953C167.971 175.851 166.841 177.5 165.198 180.447H165.352ZM174.647 128.899L175.777 129.549L176.599 129.099L179.629 124.504L178.14 120.758L174.596 119.909C172.388 120.858 170.385 121.807 169.82 123.954L174.185 121.807L176.65 122.706L177.369 125.003L174.647 128.949V128.899ZM160.986 125.902C159.137 125.353 157.853 125.253 156.107 125.303L154.926 128.6C157.597 128.849 159.599 128.75 161.038 125.902H160.986Z" fill="white"/>
<path d="M82.7002 114.592L67.4693 139.538C67.0796 140.176 66.5851 140.824 65.986 141.482C65.3797 142.111 64.692 142.691 63.9231 143.222C63.1651 143.735 62.333 144.167 61.4268 144.518C60.5025 144.858 59.5223 145.067 58.486 145.146C57.4425 145.196 56.3501 145.083 55.209 144.807C54.0498 144.521 52.8652 144.012 51.6552 143.283L32.585 131.782C31.9349 131.39 31.2829 130.9 30.6291 130.312C29.968 129.695 29.3737 129.009 28.8462 128.254C28.3007 127.489 27.8508 126.647 27.4965 125.73C27.1423 124.813 26.9288 123.847 26.8562 122.833C26.7763 121.79 26.8697 120.707 27.1364 119.582C27.4032 118.457 27.8992 117.301 28.6245 116.113L43.8554 91.1667L50.8984 95.4139L35.6675 120.36C35.1154 121.264 34.937 122.103 35.1323 122.876C35.3276 123.648 35.9038 124.323 36.861 124.9L55.877 136.368C56.78 136.913 57.6304 137.098 58.4283 136.924C59.219 136.722 59.885 136.177 60.4263 135.291L75.6573 110.345L82.7002 114.592Z" fill="white"/>
<path d="M128.98 56.3864C130.483 58.6587 131.468 61.0081 131.936 63.4345C132.404 65.861 132.391 68.2288 131.898 70.538C131.404 72.8472 130.446 75.0257 129.022 77.0734C127.604 79.0922 125.757 80.8446 123.482 82.3306L114.169 88.4127C111.894 89.8987 109.534 90.8936 107.089 91.3975C104.633 91.884 102.241 91.8942 99.9119 91.428C97.5834 90.9619 95.3826 90.0397 93.3095 88.6615C91.2542 87.2718 89.4752 85.4408 87.9727 83.1685L83.2586 76.0392C81.7675 73.7842 80.788 71.4435 80.32 69.0171C79.8582 66.5618 79.8797 64.1882 80.3846 61.8963C80.878 59.5871 81.8368 57.4086 83.2608 55.3609C84.6848 53.3133 86.5344 51.5464 88.8096 50.0605L98.1223 43.9783C100.398 42.4924 102.755 41.5119 105.193 41.0368C107.649 40.5503 110.042 40.5401 112.37 41.0063C114.688 41.4551 116.88 42.383 118.946 43.7901C121.002 45.1798 122.775 47.0021 124.266 49.2571L128.98 56.3864ZM117.387 53.7496C116.504 52.4139 115.487 51.3524 114.335 50.5649C113.189 49.7486 111.967 49.2179 110.668 48.9731C109.376 48.6994 108.037 48.7172 106.65 49.0266C105.27 49.3071 103.918 49.8794 102.596 50.7433L93.2829 56.8254C91.9424 57.7009 90.86 58.7183 90.0355 59.8777C89.2173 61.0082 88.6694 62.2229 88.3918 63.5218C88.1028 64.8034 88.0991 66.1346 88.3808 67.5154C88.6686 68.8673 89.2541 70.2111 90.1373 71.5467L94.8514 78.676C95.7345 80.0116 96.7491 81.0876 97.895 81.904C99.047 82.6914 100.278 83.2163 101.588 83.4785C102.886 83.7234 104.226 83.7055 105.606 83.425C106.992 83.1156 108.356 82.5232 109.696 81.6477L118.956 75.6001C120.296 74.7247 121.376 73.7217 122.194 72.5912C123.018 71.4318 123.575 70.2114 123.864 68.9298C124.142 67.6308 124.137 66.3054 123.849 64.9535C123.567 63.5727 122.985 62.2145 122.101 60.8788L117.387 53.7496Z" fill="white"/>
<path d="M202.581 45.3685C202.789 46.9415 202.766 48.3888 202.512 49.7104C202.276 51.0088 201.884 52.1821 201.336 53.2304C200.789 54.2786 200.106 55.199 199.288 55.9916C198.471 56.7841 197.605 57.4582 196.692 58.0139C195.779 58.5696 194.83 59.0156 193.845 59.3521C192.881 59.6858 191.956 59.9105 191.07 60.0262L159.346 64.1695L158.293 56.2026L190.017 52.0593C191.598 51.8527 192.762 51.2436 193.507 50.2318C194.274 49.2173 194.558 47.9542 194.358 46.4426C194.26 45.7072 194.055 45.0482 193.742 44.4656C193.429 43.8831 193.022 43.396 192.519 43.0045C192.038 42.6101 191.465 42.3317 190.8 42.1692C190.156 42.0039 189.455 41.9708 188.696 42.07L169.781 44.5403C168.453 44.7138 166.989 44.6763 165.391 44.428C163.789 44.1592 162.257 43.6008 160.793 42.7529C159.351 41.9023 158.078 40.7074 156.973 39.1684C155.89 37.6267 155.19 35.6608 154.874 33.2707C154.558 30.8806 154.724 28.812 155.373 27.0649C156.04 25.2945 156.959 23.8133 158.131 22.6212C159.322 21.4058 160.657 20.4729 162.137 19.8225C163.614 19.1516 165.017 18.7294 166.346 18.5559L194.337 14.9L195.391 22.8669L167.399 26.5228C165.839 26.7266 164.676 27.346 163.912 28.3809C163.169 29.4131 162.898 30.685 163.098 32.1967C163.3 33.7288 163.893 34.8878 164.877 35.6737C165.878 36.4364 167.16 36.7159 168.72 36.5121L187.697 34.0335C188.586 33.9383 189.54 33.9383 190.561 34.0336C191.579 34.1084 192.603 34.3072 193.632 34.6299C194.683 34.9499 195.697 35.3994 196.674 35.9782C197.649 36.5367 198.537 37.2519 199.339 38.1239C200.162 38.9931 200.856 40.0246 201.421 41.2184C201.987 42.4122 202.373 43.7956 202.581 45.3685Z" fill="white"/>
<path d="M276.576 77.8388L268.722 75.0604L277.65 50.1341L255.353 68.9167C254.797 69.3997 254.153 69.6873 253.422 69.7795C252.711 69.8787 252.006 69.8047 251.307 69.5572C250.627 69.3168 250.043 68.9349 249.555 68.4115C249.087 67.8952 248.792 67.2753 248.668 66.5519L243.267 37.9708L234.339 62.8971L226.545 60.1399L240.376 21.5245C240.69 20.6489 241.228 19.9625 241.992 19.4652C242.775 18.9751 243.638 18.7652 244.581 18.8357C245.036 18.8869 245.466 19.0062 245.872 19.1936C246.284 19.3615 246.653 19.5904 246.977 19.8804C247.328 20.158 247.614 20.4896 247.836 20.8751C248.066 21.2412 248.224 21.648 248.311 22.0955L255.3 58.4075L283.803 34.6512C284.528 34.0744 285.345 33.7717 286.256 33.7431C287.187 33.7217 288.054 33.9735 288.857 34.4986C289.612 35.029 290.138 35.7302 290.434 36.6021C290.729 37.4741 290.72 38.3478 290.407 39.2235L276.576 77.8388Z" fill="white"/>
<path d="M301.66 99.3652L295.42 94.0698L324.686 60.0115L330.926 65.3069L301.66 99.3652Z" fill="white"/>
<path d="M340.62 150.414L325.389 125.468C324.999 124.83 324.649 124.095 324.339 123.263C324.058 122.438 323.858 121.564 323.739 120.641C323.631 119.736 323.63 118.803 323.735 117.842C323.858 116.87 324.124 115.91 324.532 114.96C324.969 114.017 325.575 113.106 326.348 112.227C327.139 111.338 328.139 110.528 329.349 109.799L348.42 98.2984C349.07 97.9063 349.808 97.558 350.635 97.2533C351.491 96.9555 352.378 96.7483 353.295 96.6318C354.23 96.5045 355.189 96.4964 356.171 96.6076C357.153 96.7188 358.114 96.9766 359.052 97.3808C360.02 97.792 360.944 98.3748 361.825 99.1293C362.705 99.8839 363.508 100.855 364.234 102.043L379.465 126.989L372.422 131.236L357.191 106.29C356.639 105.386 355.973 104.842 355.193 104.657C354.413 104.472 353.544 104.669 352.587 105.246L333.571 116.713C332.668 117.258 332.11 117.922 331.897 118.706C331.712 119.496 331.891 120.335 332.432 121.221L347.663 146.167L340.62 150.414Z" fill="white"/>
</g>
<defs>
<filter id="filter0_dd_2024_602" x="-5.72205e-06" y="2.47955e-05" width="403.8" height="403.8" filterUnits="userSpaceOnUse" color-interpolation-filters="sRGB">
<feFlood flood-opacity="0" result="BackgroundImageFix"/>
<feColorMatrix in="SourceAlpha" type="matrix" values="0 0 0 0 0 0 0 0 0 0 0 0 0 0 0 0 0 0 127 0" result="hardAlpha"/>
<feOffset dy="2"/>
<feGaussianBlur stdDeviation="2.5"/>
<feColorMatrix type="matrix" values="0 0 0 0 0 0 0 0 0 0 0 0 0 0 0 0 0 0 1 0"/>
<feBlend mode="normal" in2="BackgroundImageFix" result="effect1_dropShadow_2024_602"/>
<feColorMatrix in="SourceAlpha" type="matrix" values="0 0 0 0 0 0 0 0 0 0 0 0 0 0 0 0 0 0 127 0" result="hardAlpha"/>
<feOffset dy="-3"/>
<feGaussianBlur stdDeviation="5.95"/>
<feComposite in2="hardAlpha" operator="out"/>
<feColorMatrix type="matrix" values="0 0 0 0 0 0 0 0 0 0 0 0 0 0 0 0 0 0 1 0"/>
<feBlend mode="normal" in2="effect1_dropShadow_2024_602" result="effect2_dropShadow_2024_602"/>
<feBlend mode="normal" in="BackgroundImageFix" in2="effect2_dropShadow_2024_602" result="BackgroundImageFix"/>
<feBlend mode="normal" in="SourceGraphic" in2="BackgroundImageFix" result="shape"/>
</filter>
</defs>
</svg>
