<!DOCTYPE svg PUBLIC "-//W3C//DTD SVG 1.1//EN" "http://www.w3.org/Graphics/SVG/1.1/DTD/svg11.dtd">
<!-- Uploaded to: SVG Repo, www.svgrepo.com, Transformed by: SVG Repo Mixer Tools -->
<svg width="800px" height="800px" viewBox="-2.4 -2.4 28.80 28.80" xmlns="http://www.w3.org/2000/svg" fill="#000000" stroke="#000000" stroke-width="0.00024000000000000003" transform="rotate(0)matrix(1, 0, 0, 1, 0, 0)">
<g id="SVGRepo_bgCarrier" stroke-width="0" transform="translate(0,0), scale(1)"/>
<g id="SVGRepo_tracerCarrier" stroke-linecap="round" stroke-linejoin="round" stroke="#CCCCCC" stroke-width="0.43200000000000005"/>
<g id="SVGRepo_iconCarrier"> <g> <path fill="none" d="M0 0h24v24H0z"/> <path d="M2.88 18.054a35.897 35.897 0 0 1 8.531-16.32.8.8 0 0 1 1.178 0c.166.18.304.332.413.455a35.897 35.897 0 0 1 8.118 15.865c-2.141.451-4.34.747-6.584.874l-2.089 4.178a.5.5 0 0 1-.894 0l-2.089-4.178a44.019 44.019 0 0 1-6.584-.874zM12 15a3 3 0 1 0 0-6 3 3 0 0 0 0 6z"/> </g> </g>
</svg>