<?xml version="1.0" standalone="no"?>
<!DOCTYPE svg PUBLIC "-//W3C//DTD SVG 20010904//EN"
 "http://www.w3.org/TR/2001/REC-SVG-20010904/DTD/svg10.dtd">
<svg version="1.0" xmlns="http://www.w3.org/2000/svg"
 width="512.000000pt" height="512.000000pt" viewBox="0 0 512.000000 512.000000"
 preserveAspectRatio="xMidYMid meet">

<g transform="translate(0.000000,512.000000) scale(0.100000,-0.100000)"
fill="#000000" stroke="none">
<path d="M2380 5114 c-19 -2 -78 -9 -130 -14 -330 -36 -695 -160 -990 -336
-375 -224 -680 -529 -904 -904 -175 -292 -291 -632 -338 -990 -16 -123 -16
-497 0 -620 47 -358 163 -698 338 -990 224 -375 529 -680 904 -904 731 -437
1660 -472 2421 -93 153 76 178 99 166 149 -4 15 -14 34 -23 42 -32 33 -60 30
-153 -18 -829 -425 -1806 -345 -2551 210 -135 101 -373 339 -474 474 -254 341
-416 745 -467 1165 -15 129 -15 421 0 550 51 420 213 824 467 1165 101 135
339 373 474 474 341 254 745 416 1165 467 55 6 179 12 275 12 274 0 495 -35
745 -118 369 -121 665 -305 945 -585 266 -265 448 -552 570 -895 218 -617 168
-1320 -137 -1906 -49 -96 -51 -121 -11 -159 26 -24 65 -26 97 -3 28 19 144
254 196 398 195 535 204 1134 25 1675 -194 590 -590 1082 -1130 1404 -289 173
-634 291 -980 336 -88 12 -438 21 -500 14z"/>
<path d="M2405 4309 c-165 -14 -437 -82 -503 -125 -32 -21 -44 -56 -31 -94 21
-60 53 -63 201 -16 189 61 259 71 493 70 177 0 226 -4 312 -22 748 -161 1273
-806 1273 -1562 0 -878 -712 -1590 -1590 -1590 -687 0 -1304 447 -1513 1095
-58 181 -72 274 -72 495 0 228 11 301 71 488 36 114 40 142 24 172 -13 25 -65
41 -95 30 -33 -13 -49 -41 -83 -145 -135 -413 -112 -861 66 -1260 139 -314
371 -581 670 -772 187 -120 462 -219 699 -252 105 -15 361 -15 466 0 518 72
970 363 1254 807 120 187 219 462 252 699 15 105 15 361 0 466 -84 605 -472
1124 -1024 1370 -264 117 -584 171 -870 146z"/>
<path d="M1270 4165 c-265 -65 -405 -369 -282 -614 32 -65 109 -147 172 -184
270 -158 621 28 647 343 25 293 -249 525 -537 455z m227 -181 c158 -75 197
-299 75 -427 -66 -70 -175 -99 -265 -73 -201 58 -268 304 -123 449 87 87 198
105 313 51z"/>
<path d="M2505 3485 c-21 -20 -25 -34 -25 -80 0 -36 -4 -57 -12 -59 -7 -2 -47
-11 -88 -20 -41 -9 -106 -31 -144 -48 l-68 -32 -42 46 c-48 54 -65 61 -106 47
-59 -21 -67 -83 -20 -148 l31 -42 -54 -59 c-29 -33 -69 -86 -88 -120 -56 -99
-48 -93 -98 -75 -61 21 -88 19 -116 -10 -30 -29 -33 -74 -7 -104 9 -11 40 -28
67 -38 49 -18 50 -19 45 -53 -3 -19 -5 -78 -5 -130 0 -52 2 -111 5 -130 5 -34
4 -35 -45 -53 -27 -10 -58 -27 -67 -38 -26 -30 -23 -75 7 -104 28 -29 55 -31
116 -10 50 18 42 24 98 -75 19 -34 59 -87 88 -120 l54 -59 -31 -42 c-47 -65
-39 -127 20 -148 41 -14 58 -7 106 47 l42 46 68 -32 c38 -17 103 -39 144 -48
41 -9 81 -18 88 -20 8 -2 12 -23 12 -59 0 -46 4 -60 25 -80 32 -33 78 -33 110
0 21 20 25 34 25 80 0 36 4 57 13 59 6 2 46 11 87 20 41 9 106 31 144 48 l68
32 42 -46 c48 -54 65 -61 106 -47 59 21 67 83 20 148 l-31 42 54 59 c29 33 69
86 88 120 56 99 48 93 98 75 61 -21 88 -19 116 10 30 29 33 74 8 104 -10 11
-40 28 -68 38 -49 18 -50 19 -45 53 3 19 5 78 5 130 0 52 -2 111 -5 130 -5 34
-4 35 45 53 28 10 58 27 68 38 25 30 22 75 -8 104 -28 29 -55 31 -116 10 -50
-18 -42 -24 -98 75 -19 34 -59 87 -88 120 l-54 59 31 42 c47 65 39 127 -20
148 -41 14 -58 7 -106 -47 l-42 -46 -68 32 c-38 17 -103 39 -144 48 -41 9 -81
18 -87 20 -9 2 -13 23 -13 59 0 46 -4 60 -25 80 -15 16 -36 25 -55 25 -19 0
-40 -9 -55 -25z m230 -326 c202 -59 360 -216 425 -424 31 -98 31 -252 0 -350
-64 -207 -218 -361 -425 -425 -53 -17 -95 -22 -175 -22 -175 0 -319 59 -441
181 -122 122 -181 266 -181 441 0 175 59 319 181 441 164 164 392 222 616 158z"/>
<path d="M4195 1226 c-125 -40 -218 -119 -273 -235 -149 -310 116 -664 455
-611 95 15 164 50 234 116 161 154 179 401 42 581 -43 56 -137 120 -210 143
-74 23 -186 26 -248 6z m231 -174 c103 -53 154 -133 154 -241 -1 -157 -114
-271 -271 -271 -239 0 -357 290 -186 458 83 81 207 103 303 54z"/>
</g>
</svg>
