<svg width="512" height="512" viewBox="0 0 512 512" fill="none" xmlns="http://www.w3.org/2000/svg">
<path d="M228.456 132.146C232.57 131.674 237.808 132.477 241.97 132.728C265.688 134.157 288.817 143.097 307.847 157.224C319.465 166.249 328.382 176.547 342.431 182.024C353.683 186.41 363.842 185.831 375.644 184.33C378.871 183.919 382.498 182.54 385.78 181.909C403.653 178.476 421.098 173.021 439.067 169.982C449.522 167.8 461.623 165.353 472.296 165.624C498.324 166.285 469.593 185.404 462.535 190.48L441.884 205.028C424.854 216.962 407.961 229.092 391.212 241.417C386.332 245 362.831 261.629 360.98 265.915C359.354 269.681 360.149 274.903 359.483 278.97C358.992 281.973 358.166 284.981 357.424 287.93C351.979 309.535 341.608 327.832 325.725 343.455C321.936 347.183 318.077 350.759 313.774 353.891C293.338 368.78 269.024 377.457 243.761 378.875C233.329 379.36 222.725 378.387 212.425 376.712C209.588 376.249 206.761 375.43 203.975 374.717C189.627 371.047 175.88 365.492 163.496 357.313C161.639 356.087 158.625 354.424 157.438 352.544C157.064 351.952 156.954 351.482 157.14 350.792C158.308 346.452 182.104 335.008 186.702 333.375C188.835 332.619 190.924 332.23 193.188 332.184C199.949 332.043 206.705 334.507 213.282 335.887C233.698 340.164 254.502 337.998 272.917 327.847C291.613 317.545 308.194 298.814 313.581 277.914C314.617 273.9 315.792 269.775 316.397 265.67C316.881 262.387 316.696 258.818 317.682 255.646C319.786 248.869 331.973 243.332 338.011 240.128C344.568 236.825 351.077 233.2 357.609 229.796L409.486 202.936C417.091 199.043 424.722 195.207 432.386 191.43C440.729 187.33 446.594 184.719 454.504 179.725C439.716 181.679 419.626 189.853 405.644 195.675C391.83 201.354 378.164 207.389 364.663 213.774C353.772 218.891 342.274 224.112 331.515 229.431C315.306 237.609 299.18 245.951 283.138 254.453L213.163 290.642C200.045 297.464 186.811 304.063 173.468 310.438C138.207 327.66 102.756 343.669 64.506 353.087C56.4376 355.074 43.7604 357.434 35.5057 355.887C33.4322 355.498 31.9794 354.624 30.2023 353.572L29 350.453C29.3227 347.948 30.1448 345.186 31.5165 343.055C36.3647 335.531 42.7671 328.82 48.6867 322.143C61.7758 307.599 75.0563 293.225 88.5248 279.028C92.9777 274.34 97.2855 269.512 101.442 264.558C102.686 263.075 104.275 261.505 105.249 259.862C106.819 257.213 106.879 243.529 107.308 239.487C107.765 235.181 108.723 231.003 109.724 226.799C114.031 208.709 121.971 192.045 134.025 177.788C153.705 154.281 181.21 138.633 211.505 133.708C216.111 132.952 223.559 132.558 228.456 132.146ZM218.208 275.99C240.63 264.92 263.092 252.743 285.253 241.134L299.155 233.864C302.215 232.288 311.36 227.722 313.399 225.855L313.774 225.515C309.853 219.509 306.946 213.638 302.564 207.822C284.8 184.234 257.032 169.736 227.165 171.557C221.106 172.311 214.675 173.017 208.795 174.701C167.63 186.487 143.556 225.183 149.691 267.212C150.544 273.056 153.93 287.71 158.676 290.607C173.064 299.382 196.957 286.489 210.312 280.037C213.209 278.639 215.876 277.358 218.208 275.99Z" fill="black"/>
</svg>
